<svg width="49" height="49" viewBox="0 0 49 49" fill="none" xmlns="http://www.w3.org/2000/svg">
<path d="M9.82947 38.4366H39.7815C42.4215 35.1486 44.0055 30.9726 44.0055 26.4366C44.0055 15.8286 35.4135 7.23657 24.8055 7.23657C14.1975 7.23657 5.60547 15.8286 5.60547 26.4366C5.60547 30.9726 7.18947 35.1486 9.82947 38.4366ZM24.8055 9.63657C26.1255 9.63657 27.2055 10.7166 27.2055 12.0366C27.2055 13.3566 26.1255 14.4366 24.8055 14.4366C23.4855 14.4366 22.4055 13.3566 22.4055 12.0366C22.4055 10.7166 23.4855 9.63657 24.8055 9.63657ZM15.2055 14.4366C16.5255 14.4366 17.6055 15.5166 17.6055 16.8366C17.6055 18.1566 16.5255 19.2366 15.2055 19.2366C13.8855 19.2366 12.8055 18.1566 12.8055 16.8366C12.8055 15.5166 13.8855 14.4366 15.2055 14.4366ZM34.4055 14.4366C35.7255 14.4366 36.8055 15.5166 36.8055 16.8366C36.8055 18.1566 35.7255 19.2366 34.4055 19.2366C33.0855 19.2366 32.0055 18.1566 32.0055 16.8366C32.0055 15.5166 33.0855 14.4366 34.4055 14.4366ZM21.5175 27.7566L29.6055 16.8366V31.2366C29.6055 33.8766 27.4455 36.0366 24.8055 36.0366C22.1655 36.0366 20.0055 33.8766 20.0055 31.2366C20.0055 29.8686 20.5815 28.6446 21.5175 27.7566ZM10.4055 24.0366C11.7255 24.0366 12.8055 25.1166 12.8055 26.4366C12.8055 27.7566 11.7255 28.8366 10.4055 28.8366C9.08547 28.8366 8.00547 27.7566 8.00547 26.4366C8.00547 25.1166 9.08547 24.0366 10.4055 24.0366ZM39.2055 24.0366C40.5255 24.0366 41.6055 25.1166 41.6055 26.4366C41.6055 27.7566 40.5255 28.8366 39.2055 28.8366C37.8855 28.8366 36.8055 27.7566 36.8055 26.4366C36.8055 25.1166 37.8855 24.0366 39.2055 24.0366ZM27.2055 31.2366C27.2055 29.9166 26.1255 28.8366 24.8055 28.8366C23.4855 28.8366 22.4055 29.9166 22.4055 31.2366C22.4055 32.5566 23.4855 33.6366 24.8055 33.6366C26.1255 33.6366 27.2055 32.5566 27.2055 31.2366Z" fill="#111827"/>
</svg>
