<svg width="49" height="49" viewBox="0 0 49 49" fill="none" xmlns="http://www.w3.org/2000/svg">
<path d="M14.4976 36.9868H34.4976V32.9868H14.4976V36.9868Z" fill="white"/>
<path d="M34.4976 28.9868H14.4976V24.9868H34.4976V28.9868Z" fill="white"/>
<path d="M14.4976 20.9868H22.4976V16.9868H14.4976V20.9868Z" fill="white"/>
<path fill-rule="evenodd" clip-rule="evenodd" d="M12.4976 4.98682C9.18386 4.98682 6.49756 7.67312 6.49756 10.9868V38.9868C6.49756 42.3006 9.18386 44.9868 12.4976 44.9868H36.4976C39.8114 44.9868 42.4976 42.3006 42.4976 38.9868V18.9868C42.4976 11.2548 36.2296 4.98682 28.4976 4.98682H12.4976ZM12.4976 8.98682H26.4976V18.9868H38.4976V38.9868C38.4976 40.0914 37.6022 40.9868 36.4976 40.9868H12.4976C11.393 40.9868 10.4976 40.0914 10.4976 38.9868V10.9868C10.4976 9.88226 11.393 8.98682 12.4976 8.98682ZM30.4976 9.18686C33.7202 9.84102 36.3802 12.0449 37.6656 14.9868H30.4976V9.18686Z" fill="white"/>
</svg>
