<svg width="49" height="49" viewBox="0 0 49 49" fill="none" xmlns="http://www.w3.org/2000/svg">
<g clip-path="url(#clip0_1408_2282)">
<path d="M24.9395 44.952C13.8935 44.952 4.93945 35.998 4.93945 24.952C4.93945 13.906 13.8935 4.95203 24.9395 4.95203C28.0448 4.9497 31.1078 5.67158 33.8853 7.06032C36.6628 8.44905 39.0781 10.4664 40.9395 12.952H35.5195C33.2099 10.9156 30.3618 9.58875 27.3169 9.13083C24.272 8.67292 21.1596 9.10334 18.3532 10.3705C15.5469 11.6376 13.1657 13.6876 11.4956 16.2744C9.82543 18.8613 8.93719 21.8751 8.93745 24.9542C8.9377 28.0334 9.82645 31.0471 11.497 33.6337C13.1676 36.2202 15.5491 38.2698 18.3557 39.5365C21.1622 40.8031 24.2747 41.233 27.3195 40.7746C30.3644 40.3162 33.2123 38.9889 35.5215 36.952H40.9415C39.0799 39.438 36.6643 41.4554 33.8864 42.8442C31.1086 44.2329 28.0451 44.9547 24.9395 44.952ZM38.9395 32.952V26.952H22.9395V22.952H38.9395V16.952L48.9395 24.952L38.9395 32.952Z" fill="#111827"/>
</g>
<defs>
<clipPath id="clip0_1408_2282">
<rect width="48" height="48" fill="#111827" transform="translate(0.939453 0.952026)"/>
</clipPath>
</defs>
</svg>
